<?xml version="1.0" encoding="UTF-8"?>
<svg id="Layer_2" data-name="Layer 2" xmlns="http://www.w3.org/2000/svg" viewBox="0 0 62.61 46.76">
  <defs>
    <style>
      .cls-1 {
        fill: #7289da;
        stroke: #7289da;
        stroke-miterlimit: 10;
        stroke-width: 2px;
      }
    </style>
  </defs>
  <g id="Layer_1-2" data-name="Layer 1">
    <g>
      <path class="cls-1" d="M45.06,45.74l-3.87-5.5,.65-.46,3.62,5.14c2.59-.16,11.9-1.83,15.35-7.67-.03-12.77-5.09-28.35-7.59-30.63-4.55-3.62-11.8-4.57-13.3-4.73-.21,.5-.64,1.69-.64,2.97h-.8c0-1.87,.81-3.5,.84-3.57l.12-.24,.27,.02c.35,.03,8.74,.75,14.03,4.95,2.67,2.44,7.87,18.12,7.87,31.34v.11l-.05,.09c-3.73,6.48-13.79,8.1-16.28,8.18h-.22Z"/>
      <path class="cls-1" d="M22.14,20.22c-2.86,0-5.18,2.5-5.18,5.58s2.32,5.58,5.18,5.58,5.18-2.5,5.18-5.58-2.33-5.58-5.18-5.58Zm0,10.37c-2.42,0-4.39-2.15-4.39-4.79s1.97-4.79,4.39-4.79,4.39,2.15,4.39,4.79-1.97,4.79-4.39,4.79Z"/>
      <path class="cls-1" d="M40.48,20.22c-2.86,0-5.18,2.5-5.18,5.58s2.32,5.58,5.18,5.58,5.18-2.5,5.18-5.58-2.33-5.58-5.18-5.58Zm0,10.37c-2.42,0-4.39-2.15-4.39-4.79s1.97-4.79,4.39-4.79,4.39,2.15,4.39,4.79-1.97,4.79-4.39,4.79Z"/>
      <path class="cls-1" d="M17.55,45.74h-.22c-2.49-.09-12.55-1.7-16.28-8.18l-.05-.09v-.11C1,24.14,6.2,8.46,8.85,6.04,14.16,1.82,22.55,1.1,22.9,1.07l.25-.02,.12,.22c.04,.07,.95,1.71,.95,3.59h-.8c0-1.28-.5-2.48-.73-2.97-1.47,.16-8.75,1.11-13.34,4.75C6.89,8.9,1.83,24.48,1.8,37.25c3.46,5.85,12.77,7.52,15.35,7.67l3.62-5.14,.65,.46-3.87,5.5Z"/>
      <path class="cls-1" d="M31.31,41.75c-13.43,0-20.07-5.44-20.35-5.68l.51-.61c.07,.06,6.72,5.49,19.84,5.49s19.77-5.43,19.84-5.49l.51,.61c-.28,.23-6.92,5.68-20.35,5.68Z"/>
      <path class="cls-1" d="M49.2,8.99c-7.21-4.5-16.17-4.72-17.89-4.72s-10.69,.23-17.89,4.72l-.42-.68C20.38,3.7,29.55,3.46,31.31,3.46s10.93,.23,18.31,4.85l-.42,.68Z"/>
    </g>
  </g>
</svg>