<?xml version="1.0" encoding="UTF-8"?>
<svg id="Layer_2" data-name="Layer 2" xmlns="http://www.w3.org/2000/svg" viewBox="0 0 46.83 48.18">
  <defs>
    <style>
      .cls-1 {
        fill: #fefcfb;
      }

      .cls-2 {
        fill: #fd4501;
      }

      .cls-3 {
        opacity: .8;
      }

      .cls-4 {
        fill: #fe4905;
      }

      .cls-5 {
        fill: #fe4906;
      }

      .cls-6 {
        fill: #fe4d0b;
      }
    </style>
  </defs>
  <g id="Layer_1-2" data-name="Layer 1">
    <g class="cls-3">
      <g>
        <path class="cls-2" d="M23.38,46.82c-5.34,0-10.26-1.8-14.2-4.82C3.59,37.72-.01,30.96,0,23.38,.02,10.72,10.13-.02,23.44,0c13.03,.02,23.4,10.51,23.38,23.44-.01,12.92-10.52,23.4-23.44,23.39Zm2.37-35.96c1.63,.35,3.17,.67,4.71,1.02,.15,.03,.3,.25,.36,.42,.36,1.06,1.28,1.75,2.35,1.71,1.07-.04,1.96-.78,2.19-1.82,.23-1.05-.25-2.09-1.2-2.58-.95-.5-2.09-.29-2.83,.57-.24,.27-.45,.3-.77,.23-1.6-.33-3.2-.65-4.79-.96-.98-.19-1.21-.04-1.41,.92-.51,2.41-1.02,4.82-1.52,7.23-.07,.36-.21,.47-.57,.49-.74,.04-1.49,.11-2.22,.23-2.16,.37-4.16,1.17-6.02,2.34-.22,.14-.4,.26-.69,.05-1.66-1.18-3.78-.84-4.87,.75-1.09,1.58-.67,3.84,.99,4.83,.3,.18,.36,.39,.39,.71,.09,.91,.11,1.86,.39,2.71,.81,2.43,2.53,4.13,4.77,5.26,5.67,2.86,11.4,2.89,17.03-.05,3.18-1.66,5.21-4.22,5.13-8.04,0-.18,.14-.42,.29-.53,1.63-1.13,2.05-3.18,.97-4.75-1.11-1.61-3.24-1.95-4.86-.77-.23,.17-.39,.2-.64,.04-2.51-1.65-5.28-2.49-8.27-2.66-.13,0-.26-.05-.43-.08,.51-2.43,1.01-4.82,1.53-7.26Z"/>
        <path class="cls-1" d="M25.75,10.86c-.51,2.44-1.01,4.83-1.53,7.26,.17,.03,.3,.07,.43,.08,2.99,.17,5.76,1.01,8.27,2.66,.25,.17,.41,.13,.64-.04,1.61-1.19,3.75-.84,4.86,.77,1.09,1.57,.66,3.62-.97,4.75-.15,.1-.3,.35-.29,.53,.08,3.83-1.95,6.39-5.13,8.04-5.63,2.94-11.36,2.91-17.03,.05-2.24-1.13-3.96-2.83-4.77-5.26-.29-.85-.3-1.8-.39-2.71-.03-.32-.09-.53-.39-.71-1.66-.99-2.08-3.25-.99-4.83,1.1-1.59,3.21-1.93,4.87-.75,.29,.21,.47,.08,.69-.05,1.86-1.17,3.86-1.98,6.02-2.34,.73-.12,1.48-.2,2.22-.23,.37-.02,.5-.13,.57-.49,.49-2.41,1.01-4.82,1.52-7.23,.2-.96,.43-1.11,1.41-.92,1.6,.32,3.2,.63,4.79,.96,.31,.07,.53,.04,.77-.23,.73-.85,1.88-1.06,2.83-.57,.95,.5,1.43,1.53,1.2,2.58-.23,1.04-1.13,1.79-2.19,1.82-1.07,.04-1.99-.65-2.35-1.71-.06-.16-.21-.38-.36-.42-1.54-.35-3.08-.67-4.71-1.02Zm5.38,15.05c0-1.35-1.01-2.41-2.32-2.42-1.28,0-2.35,1.06-2.35,2.34,0,1.34,1.15,2.42,2.54,2.42,1.1,0,2.12-1.13,2.13-2.34Zm-13.2-2.49c-1.3,.01-2.34,1.08-2.32,2.37,.02,1.28,1.07,2.3,2.34,2.29,1.3,0,2.36-1.06,2.35-2.34,0-1.29-1.08-2.34-2.37-2.32Zm5.47,10.58c2.07,.06,3.96-.49,5.68-1.68,.32-.22,.43-.46,.25-.78-.18-.32-.47-.45-.84-.3-.09,.04-.18,.1-.27,.16-3.19,1.93-6.38,1.93-9.56-.03-.35-.22-.7-.34-1.01,.06-.26,.34-.15,.69,.3,.99,1.65,1.12,3.47,1.64,5.46,1.58Z"/>
        <path class="cls-4" d="M31.13,25.91c0,1.21-1.03,2.34-2.13,2.34-1.39,0-2.53-1.08-2.54-2.42,0-1.28,1.06-2.35,2.35-2.34,1.31,0,2.33,1.07,2.32,2.42Z"/>
        <path class="cls-5" d="M17.93,23.42c1.3-.01,2.37,1.03,2.37,2.32,0,1.29-1.05,2.34-2.35,2.34-1.28,0-2.32-1.02-2.34-2.29-.02-1.29,1.02-2.36,2.32-2.37Z"/>
        <path class="cls-6" d="M23.4,34c-1.99,.05-3.81-.47-5.46-1.58-.45-.3-.55-.65-.3-.99,.31-.4,.66-.28,1.01-.06,3.18,1.97,6.37,1.96,9.56,.03,.09-.05,.17-.12,.27-.16,.37-.16,.66-.02,.84,.3,.18,.32,.07,.56-.25,.78-1.71,1.19-3.6,1.74-5.68,1.68Z"/>
      </g>
      <path class="cls-2" d="M2.5,48.18c-2.26,.08,5.68-4.04,5.95-9.22,.16-2.99-1.92-4.88-1.53-5.05,.83-.36,25.19,6.66,22.09,11.12-2.31,3.33-20.88,2.97-26.51,3.16Z"/>
    </g>
  </g>
</svg>