<?xml version="1.0" encoding="UTF-8"?>
<svg id="Layer_2" data-name="Layer 2" xmlns="http://www.w3.org/2000/svg" viewBox="0 0 46.41 44.13">
  <g id="Layer_1-2" data-name="Layer 1">
    <path d="M46.41,44.12h-.5c-4.27,0-8.55,0-12.82,0-.34,0-.55-.09-.76-.37-4.03-5.47-8.07-10.94-12.1-16.4-.08-.11-.16-.21-.32-.43-.1,.15-.17,.29-.27,.4-5.13,5.49-10.26,10.98-15.38,16.47-.22,.23-.43,.34-.76,.34-1.14-.02-2.28,0-3.52,0,6.1-6.54,12.14-13.01,18.21-19.52C12.17,16.42,6.13,8.25,.06,.03,.22,.02,.32,0,.43,0,4.62,0,8.82,0,13.02,0c.25,0,.39,.09,.54,.29,3.95,5.28,7.91,10.56,11.87,15.84,.09,.13,.19,.25,.33,.43,.11-.13,.19-.24,.28-.34,4.96-5.31,9.91-10.62,14.86-15.94,.19-.2,.37-.28,.64-.27,1.07,.01,2.14,0,3.21,0h.45c-5.92,6.34-11.79,12.61-17.68,18.91,6.29,8.39,12.56,16.76,18.89,25.21Zm-5.6-2.88c-.11-.16-.18-.26-.25-.36-2.31-3.08-4.62-6.16-6.93-9.25C26.57,22.23,19.52,12.83,12.47,3.42c-.18-.23-.35-.32-.64-.31-1.86,.01-3.72,0-5.58,0h-.44c.12,.17,.19,.27,.26,.37,9.07,12.18,18.13,24.37,27.2,36.55,.29,.39,.52,.94,.91,1.14,.41,.2,.98,.07,1.49,.07,1.69,0,3.37,0,5.13,0Z"/>
  </g>
</svg>